<svg width="10" height="12" viewBox="0 0 10 12" stroke="currentColor" fill="none" xmlns="http://www.w3.org/2000/svg">
<path d="M9.09202 6.14663C9.0788 6.09443 9.06277 6.04298 9.04402 5.9925C9.03136 5.94339 9.01621 5.89495 8.99864 5.84738C8.96751 5.77809 8.93115 5.71128 8.88989 5.6475C8.87602 5.62463 8.86627 5.59912 8.85239 5.577C8.82577 5.53762 8.79239 5.50425 8.76239 5.4675V1.6875C8.76239 1.3394 8.62411 1.00556 8.37797 0.759422C8.13183 0.513281 7.79799 0.375 7.44989 0.375C7.1018 0.375 6.76796 0.513281 6.52182 0.759422C6.27567 1.00556 6.13739 1.3394 6.13739 1.6875V2.427C6.11339 2.416 6.08914 2.40587 6.06464 2.39662C6.01232 2.3778 5.95867 2.36289 5.90414 2.352C5.87939 2.34637 5.85539 2.33887 5.82914 2.33475C5.75031 2.32166 5.67056 2.31489 5.59064 2.3145C5.40314 2.31337 5.21827 2.36025 5.05402 2.45062L5.04802 2.45438C4.97522 2.49508 4.90718 2.54375 4.84514 2.5995C4.82752 2.61488 4.81252 2.63362 4.79564 2.65012C4.75314 2.69137 4.71389 2.7355 4.67789 2.7825C4.66964 2.793 4.65914 2.80125 4.65164 2.81213C4.63214 2.83875 4.61864 2.8695 4.60139 2.89763C4.58414 2.92575 4.56389 2.95913 4.54627 2.99175C4.53314 3.0165 4.51852 3.04013 4.50689 3.06675C4.39415 3.00984 4.27417 2.96858 4.15027 2.94412L4.12777 2.93963C3.94781 2.90356 3.76248 2.90356 3.58252 2.93963C3.55214 2.94563 3.52439 2.958 3.49477 2.96587C3.47896 2.62524 3.331 2.30417 3.08232 2.07085C2.83364 1.83752 2.50381 1.71031 2.16286 1.71622C1.8219 1.72212 1.49668 1.86068 1.25622 2.10248C1.01577 2.34428 0.879023 2.67027 0.875018 3.01125V7.5C0.843964 8.56631 1.21838 9.60474 1.92277 10.4059C2.32092 10.8143 2.80086 11.1341 3.33116 11.3442C3.86146 11.5542 4.43016 11.6499 5.00002 11.625C5.57411 11.635 6.14211 11.5061 6.65564 11.2492C7.29314 10.9301 7.88564 10.3699 8.27339 9.76688C8.88904 8.78096 9.18638 7.62947 9.12502 6.46875C9.12502 6.36025 9.11402 6.25288 9.09202 6.14663ZM7.44914 1.125C7.59833 1.125 7.7414 1.18426 7.84689 1.28975C7.95238 1.39524 8.01164 1.53832 8.01164 1.6875V4.95712C7.85675 4.90499 7.69468 4.87729 7.53127 4.875H6.91027V3.9C6.91077 3.78 6.90289 3.66025 6.88664 3.54075V1.6875C6.88664 1.53832 6.94591 1.39524 7.0514 1.28975C7.15689 1.18426 7.29996 1.125 7.44914 1.125ZM5.77739 3.09113L5.80252 3.09825C5.8965 3.1304 5.97573 3.19538 6.02564 3.28125C6.03314 3.29325 6.04102 3.30375 6.04814 3.31875C6.06664 3.35525 6.08214 3.39275 6.09464 3.43125C6.09727 3.4395 6.10064 3.44513 6.10327 3.45375C6.14452 3.6 6.16327 3.75187 6.16027 3.90375V4.875H5.61539C5.51139 4.875 5.40852 4.88587 5.30677 4.90762C5.26327 4.91662 5.22389 4.93388 5.18189 4.94513C5.15039 4.95488 5.11852 4.96313 5.08777 4.97438V3.9C5.08828 3.81779 5.09556 3.73577 5.10952 3.65475C5.11552 3.61425 5.12364 3.57425 5.13389 3.53475L5.14289 3.5025C5.15564 3.45875 5.17127 3.41625 5.18977 3.375L5.19577 3.36188C5.21177 3.32888 5.23002 3.29725 5.25052 3.267L5.27114 3.23775C5.29731 3.20607 5.32603 3.1766 5.35702 3.14963C5.40277 3.114 5.45564 3.08813 5.51189 3.07463C5.53739 3.06913 5.56327 3.06613 5.58952 3.06563C5.65352 3.06488 5.71614 3.07338 5.77739 3.09113ZM4.00027 3.67838C4.08103 3.69566 4.15327 3.74046 4.20464 3.80513C4.30214 3.951 4.34902 4.12462 4.33777 4.29975V5.28038C4.34677 5.46788 4.29764 5.65312 4.19677 5.81137C4.15971 5.86375 4.10995 5.90585 4.05216 5.93373C3.99437 5.9616 3.93045 5.97434 3.86639 5.97075C3.69034 5.96363 3.52432 5.88692 3.40479 5.75748C3.28525 5.62803 3.22199 5.45643 3.22889 5.28038V4.29975C3.22631 4.13243 3.28961 3.9708 3.40514 3.84975C3.42164 3.83425 3.43889 3.81938 3.45689 3.80513C3.47452 3.7905 3.48314 3.78225 3.49777 3.77213C3.51977 3.75838 3.54239 3.74587 3.56564 3.73462C3.57952 3.72787 3.59264 3.71925 3.60727 3.71325C3.63477 3.70275 3.66277 3.694 3.69127 3.687C3.70439 3.68362 3.71677 3.67838 3.72877 3.67575C3.77316 3.66733 3.81821 3.66294 3.86339 3.66263C3.90964 3.66338 3.95527 3.66863 4.00027 3.67838ZM5.00002 10.875C4.53359 10.8996 4.06723 10.8251 3.63166 10.6565C3.19608 10.4879 2.80116 10.2289 2.47289 9.89663C1.89716 9.23383 1.59417 8.37739 1.62502 7.5V3.01125C1.62502 2.86207 1.68428 2.71899 1.78977 2.6135C1.89526 2.50801 2.03833 2.44875 2.18752 2.44875C2.3367 2.44875 2.47978 2.50801 2.58527 2.6135C2.69075 2.71899 2.75002 2.86207 2.75002 3.01125V3.471C2.57347 3.71112 2.47893 4.00171 2.48039 4.29975V5.28038C2.47686 5.46607 2.50996 5.65064 2.57779 5.82354C2.64562 5.99644 2.74685 6.15429 2.8757 6.28805C3.00455 6.42181 3.1585 6.52887 3.32875 6.60312C3.49899 6.67736 3.68219 6.71734 3.86789 6.72075C3.96364 6.72075 4.05802 6.71 4.15102 6.6885C4.23145 7.06452 4.45322 7.39529 4.77052 7.6125C4.25361 7.82532 3.79083 8.15102 3.41602 8.56575C3.38117 8.60186 3.35392 8.64459 3.33588 8.69142C3.31785 8.73826 3.3094 8.78823 3.31103 8.83839C3.31266 8.88855 3.32435 8.93786 3.34539 8.98342C3.36643 9.02898 3.3964 9.06986 3.43353 9.10362C3.47066 9.13738 3.51419 9.16335 3.56153 9.17998C3.60888 9.19662 3.65908 9.20358 3.70917 9.20046C3.75926 9.19733 3.80821 9.18419 3.85312 9.1618C3.89803 9.13941 3.938 9.10824 3.97064 9.07013C4.25504 8.76039 4.59891 8.5111 4.98175 8.33715C5.36458 8.16319 5.77852 8.06813 6.19889 8.05762C6.62602 9.1635 7.14014 9.4425 7.54889 9.4425C7.56277 9.4425 7.57552 9.43987 7.58902 9.43912C7.28189 9.89137 6.81014 10.3339 6.32827 10.5761C5.91668 10.783 5.46056 10.8857 5.00002 10.875ZM7.57589 8.68912C7.44427 8.709 7.10639 8.47875 6.78277 7.45837L6.73027 7.35375C6.6762 7.27973 6.60475 7.22014 6.52222 7.18025C6.43969 7.14036 6.34861 7.12138 6.25702 7.125H5.61539C5.46805 7.12469 5.32407 7.08099 5.20141 6.99936C5.07875 6.91772 4.98285 6.80176 4.92569 6.66596C4.86853 6.53016 4.85264 6.38053 4.88 6.23575C4.90735 6.09097 4.97675 5.95746 5.07952 5.85187C5.09114 5.83987 5.10464 5.82975 5.11702 5.8185C5.14077 5.79625 5.16577 5.77575 5.19202 5.757C5.20552 5.74763 5.22089 5.74088 5.23514 5.73225C5.26264 5.715 5.29102 5.69963 5.32027 5.68613C5.34014 5.6775 5.36152 5.67263 5.38214 5.66588C5.40814 5.65613 5.43477 5.64788 5.46202 5.64113C5.51277 5.63063 5.56402 5.62525 5.61577 5.625H7.53127C7.64198 5.62489 7.75161 5.64667 7.85387 5.68908C7.95614 5.73149 8.04901 5.7937 8.12714 5.87213L8.13877 5.88637C8.21069 5.96005 8.26818 6.04654 8.30827 6.14138V6.14475C8.35122 6.24743 8.37388 6.35745 8.37502 6.46875C8.37502 7.72913 7.89427 8.64 7.57589 8.68912Z"/>
</svg>
